<svg xmlns="http://www.w3.org/2000/svg" viewBox="0 0 384 384">
	<path fill="rgba(0,0,0,.5)" d="M309 192q13 0 22.5-9t9.5-23-9.5-23-22.5-9-22.5 9-9.5 23 9.5 23 22.5 9zM245 107q13 0 22.5-9.5t9.5-22.5-9.5-22.5-22.5-9.5-22.5 9.5-9.5 22.5 9.5 22.5 22.5 9.5zM139 107q13 0 22.5-9.5t9.5-22.5-9.5-22.5-22.5-9.5-22.5 9.5-9.5 22.5 9.5 22.5 22.5 9.5zM75 192q13 0 22.5-9t9.5-23-9.5-23-22.5-9-22.5 9-9.5 23 9.5 23 22.5 9zM192 0q79 0 135.5 50t56.5 121q0 44-31.5 75t-75.5 31h-37q-14 0-23 9.5t-9 22.5q0 11 8 21t8 22q0 14-9 23t-23 9q-80 0-136-56t-56-136 56-136 136-56z"></path>
</svg>
